<svg width="1551" height="393" viewBox="0 0 1551 393" fill="none" xmlns="http://www.w3.org/2000/svg">
<path d="M420.783 186.59V56.4597H466.103V76.3297C473.043 67.9297 481.443 61.5897 491.303 57.3097C501.153 53.0297 513.433 50.8896 528.133 50.8896C533.953 50.8896 539.963 51.1697 546.183 51.7397C552.403 52.3097 558.293 53.5196 563.873 55.3796C569.443 57.2396 574.573 59.8196 579.263 63.1296C583.953 66.4396 587.583 70.8497 590.173 76.3397C596.963 67.1297 605.523 60.5897 615.863 56.7097C626.193 52.8297 639.363 50.8997 655.363 50.8997C668.123 50.8997 678.713 52.2696 687.113 55.0096C695.503 57.7596 702.173 61.7996 707.103 67.1296C712.033 72.4596 715.503 78.9996 717.523 86.7596C719.543 94.5096 720.553 103.32 720.553 113.18V186.6H675.243V115.84C675.243 110.19 674.763 105.26 673.783 101.06C672.813 96.8597 671.033 93.3497 668.453 90.5197C665.873 87.6897 662.403 85.5496 658.033 84.0996C653.673 82.6496 648.103 81.9196 641.313 81.9196C624.513 81.9196 612.313 84.7497 604.723 90.3997C597.123 96.0597 593.333 104.54 593.333 115.84V186.6H548.023V115.84C548.023 110.19 547.533 105.26 546.573 101.06C545.603 96.8597 543.823 93.3497 541.243 90.5197C538.653 87.6897 535.183 85.5496 530.823 84.0996C526.463 82.6496 520.883 81.9196 514.103 81.9196C497.303 81.9196 485.103 84.7497 477.513 90.3997C469.913 96.0597 466.123 104.54 466.123 115.84V186.6H420.783V186.59Z" fill="#D5626D"/>
<path d="M732.894 121.64C732.894 114.53 734.554 106.86 737.864 98.6199C741.174 90.3799 746.464 82.7099 753.734 75.5999C761.004 68.4899 770.374 62.5999 781.844 57.9099C793.314 53.2199 807.124 50.8799 823.284 50.8799C839.274 50.8799 852.684 53.2599 863.514 58.0299C874.334 62.7999 883.054 68.8999 889.684 76.3299C896.304 83.7599 901.034 91.9599 903.864 100.92C906.684 109.89 908.104 118.65 908.104 127.21H873.694H775.314C775.954 132.86 777.654 137.79 780.404 141.99C783.144 146.19 786.664 149.71 790.944 152.53C795.224 155.36 800.154 157.5 805.724 158.95C811.294 160.4 817.144 161.13 823.294 161.13C834.114 161.13 843.084 159.76 850.194 157.01C857.304 154.27 862.474 149.98 865.704 144.17H908.114C905.364 151.12 901.574 157.54 896.724 163.44C891.884 169.34 885.944 174.38 878.914 178.59C871.884 182.79 863.724 186.1 854.434 188.53C845.144 190.95 834.764 192.16 823.294 192.16C808.274 192.16 795.104 190.3 783.794 186.59C772.484 182.88 763.074 177.83 755.564 171.44C748.054 165.06 742.394 157.59 738.604 149.02C734.794 140.46 732.894 131.34 732.894 121.64ZM823.284 81.8999C812.624 81.8999 803.334 83.7999 795.414 87.5999C787.504 91.3999 781.764 97.0899 778.214 104.68H865.694C863.754 100.48 860.924 96.6799 857.214 93.2899C853.984 90.3799 849.654 87.7599 844.244 85.4199C838.824 83.0799 831.844 81.8999 823.284 81.8999Z" fill="#D5626D"/>
<path d="M1052.75 113.16C1052.75 108.96 1052.22 104.96 1051.18 101.16C1050.13 97.3696 1048.35 94.0496 1045.85 91.2196C1043.34 88.3996 1039.91 86.1297 1035.55 84.4297C1031.19 82.7297 1025.61 81.8896 1018.83 81.8896C1001.87 81.8896 989.153 84.9596 980.663 91.0996C972.183 97.2396 967.943 107.42 967.943 121.63V186.57H922.623V56.4597H967.943V76.3297C981.993 59.3697 1002.67 50.8896 1029.97 50.8896C1042.73 50.8896 1053.43 52.2596 1062.08 54.9996C1070.72 57.7496 1077.71 61.7897 1083.04 67.1197C1088.37 72.4497 1092.17 78.9896 1094.43 86.7496C1096.69 94.4996 1097.82 103.31 1097.82 113.17V186.59H1052.75V113.16V113.16Z" fill="#D5626D"/>
<path d="M1116.97 36.83V0H1162.29V36.83H1116.97ZM1116.97 186.59V56.46H1162.29V186.59H1116.97Z" fill="#D5626D"/>
<path d="M1313.01 113.16C1313.01 108.96 1312.48 104.96 1311.43 101.16C1310.38 97.3696 1308.6 94.0496 1306.1 91.2196C1303.6 88.3996 1300.16 86.1297 1295.81 84.4297C1291.45 82.7297 1285.87 81.8896 1279.09 81.8896C1262.13 81.8896 1249.4 84.9596 1240.92 91.0996C1232.44 97.2396 1228.2 107.42 1228.2 121.63V186.57H1182.89V56.4597H1228.2V76.3297C1242.26 59.3697 1262.93 50.8896 1290.24 50.8896C1303 50.8896 1313.7 52.2596 1322.34 54.9996C1330.98 57.7496 1337.97 61.7897 1343.3 67.1197C1348.63 72.4497 1352.42 78.9896 1354.69 86.7496C1356.95 94.4996 1358.09 103.31 1358.09 113.17V186.59H1313.02V113.16H1313.01Z" fill="#D5626D"/>
<path d="M1503.72 166.72C1489.67 183.68 1468.91 192.16 1441.44 192.16C1428.67 192.16 1417.97 190.79 1409.33 188.05C1400.69 185.3 1393.7 181.26 1388.37 175.93C1383.04 170.6 1379.24 164.1 1376.98 156.42C1374.72 148.75 1373.59 139.98 1373.59 130.13V113.17C1373.59 103.32 1374.72 94.5096 1376.98 86.7496C1379.24 78.9996 1383.04 72.4497 1388.37 67.1197C1393.7 61.7897 1400.69 57.7496 1409.33 54.9996C1417.97 52.2596 1428.67 50.8896 1441.44 50.8896C1468.9 50.8896 1489.66 59.3697 1503.72 76.3297V56.4597H1548.79V186.59H1503.72V166.72ZM1452.83 81.8997C1446.05 81.8997 1440.47 82.7496 1436.11 84.4396C1431.75 86.1396 1428.27 88.3996 1425.69 91.2296C1423.1 94.0596 1421.33 97.3696 1420.36 101.17C1419.39 104.97 1418.91 108.97 1418.91 113.17V130.13C1418.91 134.33 1419.39 138.33 1420.36 142.13C1421.33 145.93 1423.1 149.24 1425.69 152.07C1428.27 154.9 1431.75 157.12 1436.11 158.73C1440.47 160.35 1446.05 161.16 1452.83 161.16C1469.63 161.16 1482.31 157.89 1490.87 151.35C1499.43 144.81 1503.71 134.91 1503.71 121.66C1503.71 107.45 1499.43 97.2696 1490.87 91.1296C1482.31 84.9696 1469.63 81.8997 1452.83 81.8997Z" fill="#D5626D"/>
<path d="M923.283 368.56C910.053 384.53 890.503 392.52 864.643 392.52C852.623 392.52 842.543 391.23 834.413 388.64C826.273 386.06 819.693 382.25 814.673 377.23C809.653 372.21 806.073 366.09 803.943 358.86C801.813 351.64 800.753 343.38 800.753 334.1V318.13C800.753 308.85 801.813 300.56 803.943 293.26C806.073 285.96 809.653 279.8 814.673 274.78C819.693 269.76 826.273 265.96 834.413 263.37C842.553 260.78 852.633 259.49 864.643 259.49C890.503 259.49 910.053 267.48 923.283 283.45V211.57H965.723V387.27H923.283V368.56ZM875.363 288.7C868.973 288.7 863.723 289.5 859.623 291.1C855.513 292.7 852.243 294.83 849.813 297.49C847.373 300.15 845.703 303.27 844.793 306.85C843.883 310.42 843.423 314.19 843.423 318.14V334.11C843.423 338.07 843.883 341.83 844.793 345.41C845.703 348.98 847.373 352.1 849.813 354.77C852.243 357.43 855.513 359.53 859.623 361.04C863.733 362.56 868.983 363.32 875.363 363.32C891.183 363.32 903.123 360.24 911.183 354.08C919.243 347.92 923.273 338.6 923.273 326.13C923.273 312.74 919.243 303.16 911.183 297.38C903.123 291.59 891.183 288.7 875.363 288.7Z" fill="#D5626D"/>
<path d="M979.183 326.12C979.183 319.43 980.743 312.2 983.863 304.44C986.983 296.68 991.963 289.46 998.813 282.76C1005.66 276.07 1014.48 270.52 1025.28 266.1C1036.08 261.69 1049.09 259.48 1064.3 259.48C1079.36 259.48 1091.98 261.73 1102.18 266.21C1112.37 270.7 1120.58 276.44 1126.82 283.44C1133.06 290.44 1137.51 298.16 1140.17 306.6C1142.83 315.04 1144.17 323.3 1144.17 331.36H1111.77H1019.13C1019.74 336.69 1021.33 341.32 1023.92 345.28C1026.5 349.24 1029.81 352.55 1033.85 355.21C1037.88 357.87 1042.52 359.89 1047.77 361.26C1053.02 362.63 1058.53 363.31 1064.31 363.31C1074.5 363.31 1082.94 362.02 1089.64 359.43C1096.33 356.85 1101.2 352.81 1104.24 347.34H1144.17C1141.58 353.88 1138.01 359.93 1133.45 365.48C1128.89 371.04 1123.3 375.79 1116.68 379.74C1110.06 383.7 1102.38 386.81 1093.63 389.1C1084.88 391.38 1075.11 392.52 1064.31 392.52C1050.16 392.52 1037.76 390.77 1027.12 387.27C1016.47 383.77 1007.61 379.02 1000.54 373.01C993.473 367 988.143 359.97 984.573 351.9C980.973 343.84 979.183 335.25 979.183 326.12ZM1064.29 288.7C1054.25 288.7 1045.5 290.49 1038.05 294.06C1030.59 297.64 1025.19 303 1021.85 310.15H1104.22C1102.4 306.19 1099.73 302.62 1096.24 299.43C1093.19 296.69 1089.13 294.22 1084.03 292.01C1078.93 289.8 1072.35 288.7 1064.29 288.7Z" fill="#D5626D"/>
<path d="M1335.59 387.27V368.56C1322.36 384.53 1302.81 392.52 1276.95 392.52C1264.93 392.52 1254.85 391.23 1246.72 388.64C1238.58 386.06 1232 382.25 1226.98 377.23C1221.96 372.21 1218.38 366.09 1216.25 358.86C1214.12 351.64 1213.06 343.38 1213.06 334.1V264.73H1255.73V334.1C1255.73 338.06 1256.19 341.82 1257.1 345.4C1258.01 348.97 1259.68 352.09 1262.12 354.76C1264.55 357.42 1267.82 359.52 1271.93 361.03C1276.04 362.55 1281.29 363.31 1287.67 363.31C1303.49 363.31 1315.43 360.23 1323.5 354.07C1331.56 347.91 1335.59 338.59 1335.59 326.12V264.74H1378.03V387.27H1335.59V387.27Z" fill="#D5626D"/>
<path d="M1468.85 351.45L1436.9 387.27H1387.61L1439.64 326.12L1387.61 264.74H1436.9L1468.85 300.79L1500.8 264.74H1550.09L1498.06 326.12L1550.09 387.27H1500.8L1468.85 351.45Z" fill="#D5626D"/>
<path d="M703.793 387.27H482.043C446.403 387.27 417.413 358.28 417.413 322.64C417.413 287 446.403 258.01 482.043 258.01H703.783C739.423 258.01 768.413 287 768.413 322.64C768.423 358.28 739.433 387.27 703.793 387.27ZM482.043 264.74C450.113 264.74 424.143 290.71 424.143 322.64C424.143 354.57 450.113 380.54 482.043 380.54H703.783C735.713 380.54 761.683 354.57 761.683 322.64C761.683 290.71 735.713 264.74 703.783 264.74H482.043Z" fill="#D5626D"/>
<path d="M313.003 289.75C339.763 253.8 352.703 207.59 345.393 159.79C330.893 64.9703 242.263 -0.139633 147.443 14.3704C52.6227 28.8704 -12.4873 117.5 2.02271 212.32C16.5227 307.14 105.153 372.25 199.973 357.74C226.233 353.72 250.193 344 270.833 330.06L297.093 336.49L328.893 344.27L319.733 312.84L313.003 289.75ZM169.913 89.1303C169.963 86.0703 171.743 84.2404 174.443 84.2704C177.003 84.3004 178.793 86.1004 178.813 88.9904C178.883 96.9004 178.893 104.81 178.833 112.73C178.813 115.8 176.973 117.65 174.293 117.61C171.633 117.57 169.943 115.69 169.903 112.58C169.853 108.72 169.893 104.86 169.893 101C169.903 97.0403 169.853 93.0903 169.913 89.1303ZM102.083 192.12C97.9427 192.18 93.8127 192.14 89.6727 192.13C85.7327 192.13 81.7827 192.17 77.8427 192.12C74.6027 192.08 72.6627 190.3 72.7327 187.55C72.7927 184.95 74.7327 183.24 77.7927 183.23C85.8727 183.2 93.9527 183.19 102.033 183.24C104.903 183.25 106.763 184.99 106.833 187.51C106.903 190.24 105.083 192.07 102.083 192.12ZM121.653 137.58C115.663 131.71 109.723 125.8 103.873 119.8C102.063 117.94 102.303 115.28 104.053 113.59C105.823 111.87 108.373 111.75 110.283 113.61C116.153 119.33 121.933 125.13 127.703 130.94C128.523 131.76 129.093 132.81 129.003 133.67C129.043 136 128.183 137.42 126.483 138.27C124.753 139.13 122.983 138.88 121.653 137.58ZM189.263 271.34H159.383C155.003 271.34 151.463 267.79 151.463 263.42C151.463 259.04 155.013 255.5 159.383 255.5H189.263C193.643 255.5 197.183 259.05 197.183 263.42C197.193 267.79 193.643 271.34 189.263 271.34ZM218.173 198.63C215.603 203.95 212.673 209.09 209.003 213.72C204.363 219.56 201.143 226.01 199.343 233.24C198.433 236.89 197.173 240.44 196.243 244.08C195.493 247 193.793 248.27 190.773 248.21C185.383 248.11 179.983 248.18 174.593 248.18C169.303 248.18 164.003 248.13 158.713 248.2C155.883 248.24 154.113 247.18 153.423 244.27C152.773 241.5 151.743 238.83 151.053 236.07C148.893 227.48 145.333 219.68 139.803 212.63C134.513 205.89 130.263 198.37 128.243 189.96C124.943 176.22 128.613 163.79 137.203 153.08C149.993 137.13 166.953 131.14 186.713 136.26C206.203 141.31 217.813 154.64 221.883 174.37C223.633 182.88 221.903 190.92 218.173 198.63ZM222.833 135.58C220.973 133.59 221.203 131.13 223.593 128.72C228.473 123.79 233.393 118.9 238.293 113.99C239.873 112.41 241.693 111.78 243.793 112.75C245.523 113.55 246.353 115.01 246.363 116.92C246.383 118.4 245.593 119.44 244.603 120.43C239.703 125.33 234.833 130.27 229.903 135.13C227.443 137.57 224.793 137.67 222.833 135.58ZM270.863 192.11C266.713 192.17 262.563 192.13 258.413 192.13C258.413 192.12 258.413 192.12 258.413 192.11C254.263 192.11 250.113 192.16 245.963 192.09C242.833 192.04 241.043 190.31 241.113 187.6C241.183 184.87 242.963 183.25 246.123 183.23C254.323 183.19 262.533 183.19 270.733 183.23C273.983 183.24 275.993 185.05 275.933 187.76C275.863 190.41 274.033 192.06 270.863 192.11Z" fill="#D5626D"/>
</svg>
