<svg width="18" height="19" viewBox="0 0 18 19" fill="none" xmlns="http://www.w3.org/2000/svg">
<path d="M16.1433 10.1209C16.1433 10.6729 16.0773 11.2129 15.9453 11.7409C15.8253 12.2689 15.6333 12.7489 15.3693 13.1809C15.1053 13.6009 14.7813 13.9429 14.3973 14.2069C14.0133 14.4589 13.5573 14.5849 13.0293 14.5849C12.4773 14.5849 12.0393 14.4289 11.7153 14.1169C11.4033 13.7929 11.2113 13.4269 11.1393 13.0189H11.0493C10.8333 13.4629 10.5153 13.8349 10.0953 14.1349C9.67527 14.4349 9.14727 14.5849 8.51127 14.5849C7.59927 14.5849 6.89127 14.2789 6.38727 13.6669C5.89527 13.0549 5.64927 12.2449 5.64927 11.2369C5.64927 10.4449 5.80527 9.74887 6.11727 9.14887C6.42927 8.53687 6.86727 8.05687 7.43127 7.70887C8.00727 7.36087 8.68527 7.18687 9.46527 7.18687C9.99327 7.18687 10.5093 7.23487 11.0133 7.33087C11.5293 7.41487 11.9313 7.51087 12.2193 7.61887L12.0393 11.2729C12.0273 11.4889 12.0213 11.6449 12.0213 11.7409C12.0213 11.8249 12.0213 11.8849 12.0213 11.9209C12.0213 12.5449 12.1293 12.9589 12.3453 13.1629C12.5733 13.3669 12.8373 13.4689 13.1373 13.4689C13.5093 13.4689 13.8213 13.3189 14.0733 13.0189C14.3373 12.7069 14.5353 12.2989 14.6673 11.7949C14.8113 11.2789 14.8833 10.7149 14.8833 10.1029C14.8833 8.98687 14.6553 8.04487 14.1993 7.27687C13.7553 6.49687 13.1373 5.90287 12.3453 5.49487C11.5653 5.08687 10.6773 4.88287 9.68127 4.88287C8.66127 4.88287 7.75527 5.04487 6.96327 5.36887C6.17127 5.69287 5.50527 6.14887 4.96527 6.73687C4.43727 7.32487 4.03527 8.02087 3.75927 8.82487C3.48327 9.61687 3.34527 10.4929 3.34527 11.4529C3.34527 12.6289 3.55527 13.6309 3.97527 14.4589C4.39527 15.2749 5.00727 15.8989 5.81127 16.3309C6.62727 16.7509 7.62327 16.9609 8.79927 16.9609C9.53127 16.9609 10.2273 16.8769 10.8873 16.7089C11.5593 16.5529 12.1533 16.3789 12.6693 16.1869V17.4109C12.1533 17.6269 11.5713 17.8009 10.9233 17.9329C10.2873 18.0769 9.57927 18.1489 8.79927 18.1489C7.38327 18.1489 6.17127 17.8849 5.16327 17.3569C4.15527 16.8289 3.38127 16.0729 2.84127 15.0889C2.31327 14.0929 2.04927 12.8989 2.04927 11.5069C2.04927 10.3909 2.22327 9.35887 2.57127 8.41087C2.91927 7.45087 3.42327 6.62287 4.08327 5.92687C4.74327 5.21887 5.54127 4.67287 6.47727 4.28887C7.42527 3.89287 8.49327 3.69487 9.68127 3.69487C10.6173 3.69487 11.4753 3.84487 12.2553 4.14487C13.0473 4.43287 13.7313 4.85887 14.3073 5.42287C14.8953 5.97487 15.3453 6.64687 15.6573 7.43887C15.9813 8.23087 16.1433 9.12487 16.1433 10.1209ZM7.05327 11.2729C7.05327 12.0409 7.20327 12.5989 7.50327 12.9469C7.81527 13.2949 8.22927 13.4689 8.74527 13.4689C9.41727 13.4689 9.89727 13.2169 10.1853 12.7129C10.4853 12.2089 10.6593 11.5549 10.7073 10.7509L10.8153 8.50087C10.6593 8.45287 10.4613 8.41087 10.2213 8.37487C9.98127 8.33887 9.73527 8.32087 9.48327 8.32087C8.89527 8.32087 8.42127 8.46487 8.06127 8.75287C7.70127 9.04087 7.44327 9.41287 7.28727 9.86887C7.13127 10.3129 7.05327 10.7809 7.05327 11.2729Z" fill="white"/>
</svg>
