<svg width="17" height="19" viewBox="0 0 17 19" fill="none" xmlns="http://www.w3.org/2000/svg">
<path d="M8.44375 5.75391C6.19375 5.75391 4.40078 7.58203 4.40078 9.79688C4.40078 12.0469 6.19375 13.8398 8.44375 13.8398C10.6586 13.8398 12.4867 12.0469 12.4867 9.79688C12.4867 7.58203 10.6586 5.75391 8.44375 5.75391ZM8.44375 12.4336C7.00234 12.4336 5.80703 11.2734 5.80703 9.79688C5.80703 8.35547 6.96719 7.19531 8.44375 7.19531C9.88516 7.19531 11.0453 8.35547 11.0453 9.79688C11.0453 11.2734 9.88516 12.4336 8.44375 12.4336ZM13.5766 5.61328C13.5766 5.08594 13.1547 4.66406 12.6273 4.66406C12.1 4.66406 11.6781 5.08594 11.6781 5.61328C11.6781 6.14062 12.1 6.5625 12.6273 6.5625C13.1547 6.5625 13.5766 6.14062 13.5766 5.61328ZM16.2484 6.5625C16.1781 5.29688 15.8969 4.17188 14.9828 3.25781C14.0687 2.34375 12.9437 2.0625 11.6781 1.99219C10.3773 1.92188 6.475 1.92188 5.17422 1.99219C3.90859 2.0625 2.81875 2.34375 1.86953 3.25781C0.955469 4.17188 0.674219 5.29688 0.603906 6.5625C0.533594 7.86328 0.533594 11.7656 0.603906 13.0664C0.674219 14.332 0.955469 15.4219 1.86953 16.3711C2.81875 17.2852 3.90859 17.5664 5.17422 17.6367C6.475 17.707 10.3773 17.707 11.6781 17.6367C12.9437 17.5664 14.0687 17.2852 14.9828 16.3711C15.8969 15.4219 16.1781 14.332 16.2484 13.0664C16.3187 11.7656 16.3187 7.86328 16.2484 6.5625ZM14.5609 14.4375C14.3148 15.1406 13.7523 15.668 13.0844 15.9492C12.0297 16.3711 9.56875 16.2656 8.44375 16.2656C7.28359 16.2656 4.82266 16.3711 3.80312 15.9492C3.1 15.668 2.57266 15.1406 2.29141 14.4375C1.86953 13.418 1.975 10.957 1.975 9.79688C1.975 8.67188 1.86953 6.21094 2.29141 5.15625C2.57266 4.48828 3.1 3.96094 3.80312 3.67969C4.82266 3.25781 7.28359 3.36328 8.44375 3.36328C9.56875 3.36328 12.0297 3.25781 13.0844 3.67969C13.7523 3.92578 14.2797 4.48828 14.5609 5.15625C14.9828 6.21094 14.8773 8.67188 14.8773 9.79688C14.8773 10.957 14.9828 13.418 14.5609 14.4375Z" fill="white"/>
</svg>
