<svg width="17" height="19" viewBox="0 0 17 19" fill="none" xmlns="http://www.w3.org/2000/svg">
<path d="M15.4437 1.92188H1.90859C1.31094 1.92188 0.81875 2.44922 0.81875 3.08203V16.5469C0.81875 17.1797 1.31094 17.6719 1.90859 17.6719H15.4437C16.0414 17.6719 16.5687 17.1797 16.5687 16.5469V3.08203C16.5687 2.44922 16.0414 1.92188 15.4437 1.92188ZM5.56484 15.4219H3.24453V7.93359H5.56484V15.4219ZM4.40469 6.87891C3.63125 6.87891 3.03359 6.28125 3.03359 5.54297C3.03359 4.80469 3.63125 4.17188 4.40469 4.17188C5.14297 4.17188 5.74062 4.80469 5.74062 5.54297C5.74062 6.28125 5.14297 6.87891 4.40469 6.87891ZM14.3187 15.4219H11.9633V11.7656C11.9633 10.9219 11.9633 9.79688 10.768 9.79688C9.5375 9.79688 9.36172 10.7461 9.36172 11.7305V15.4219H7.04141V7.93359H9.25625V8.95312H9.29141C9.60781 8.35547 10.3812 7.72266 11.5062 7.72266C13.8617 7.72266 14.3187 9.30469 14.3187 11.3086V15.4219Z" fill="white"/>
</svg>
