<svg width="120" height="120" viewBox="0 0 120 120" fill="none" xmlns="http://www.w3.org/2000/svg">
<g filter="url(#filter0_d_17_27)">
<rect x="10" y="9" width="100" height="100" rx="15" fill="url(#paint0_linear_17_27)"/>
<path d="M36.7865 39.1611C36.7865 32.4447 42.2592 27 49.0101 27H69.9841C76.735 27 82.2077 32.4447 82.2077 39.1611C82.2077 43.414 80.0134 47.1571 76.6897 49.3307C80.0134 51.5044 82.2077 55.2473 82.2077 59.5003C82.2077 66.2167 76.735 71.6615 69.9841 71.6615H69.7187C66.5539 71.6615 63.6699 70.4648 61.4991 68.5015V79.7067C61.4991 86.5127 55.8834 92 49.0759 92C42.3419 92 36.7865 86.5719 36.7865 79.8388C36.7865 75.5861 38.9806 71.8433 42.304 69.6696C38.9806 67.4959 36.7865 63.7529 36.7865 59.5003C36.7865 55.2473 38.9808 51.5044 42.3044 49.3307C38.9808 47.1571 36.7865 43.414 36.7865 39.1611ZM57.4951 51.3226H49.0101C44.4705 51.3226 40.7904 54.9839 40.7904 59.5003C40.7904 63.9992 44.4421 67.6496 48.9575 67.6778C48.975 67.6777 48.9925 67.6777 49.0101 67.6777H57.4951V51.3226ZM61.4991 59.5003C61.4991 64.0166 65.1791 67.6779 69.7187 67.6779H69.9841C74.5238 67.6779 78.2037 64.0166 78.2037 59.5003C78.2037 54.9839 74.5238 51.3226 69.9841 51.3226H69.7187C65.1791 51.3226 61.4991 54.9839 61.4991 59.5003ZM49.0101 71.6615C48.9925 71.6615 48.975 71.6613 48.9575 71.6613C44.4421 71.6894 40.7904 75.3398 40.7904 79.8388C40.7904 84.3386 44.5196 88.0165 49.0759 88.0165C53.7057 88.0165 57.4951 84.2795 57.4951 79.7067V71.6615H49.0101ZM49.0101 30.9835C44.4705 30.9835 40.7904 34.6448 40.7904 39.1611C40.7904 43.6776 44.4705 47.3388 49.0101 47.3388H57.4951V30.9835H49.0101ZM61.4991 47.3388H69.9841C74.5238 47.3388 78.2037 43.6776 78.2037 39.1611C78.2037 34.6448 74.5238 30.9835 69.9841 30.9835H61.4991V47.3388Z" fill="#FF5858"/>
</g>
<defs>
<filter id="filter0_d_17_27" x="0" y="0" width="120" height="120" filterUnits="userSpaceOnUse" color-interpolation-filters="sRGB">
<feFlood flood-opacity="0" result="BackgroundImageFix"/>
<feColorMatrix in="SourceAlpha" type="matrix" values="0 0 0 0 0 0 0 0 0 0 0 0 0 0 0 0 0 0 127 0" result="hardAlpha"/>
<feOffset dy="1"/>
<feGaussianBlur stdDeviation="5"/>
<feComposite in2="hardAlpha" operator="out"/>
<feColorMatrix type="matrix" values="0 0 0 0 0 0 0 0 0 0 0 0 0 0 0 0 0 0 0.09 0"/>
<feBlend mode="normal" in2="BackgroundImageFix" result="effect1_dropShadow_17_27"/>
<feBlend mode="normal" in="SourceGraphic" in2="effect1_dropShadow_17_27" result="shape"/>
</filter>
<linearGradient id="paint0_linear_17_27" x1="10" y1="9" x2="110" y2="109" gradientUnits="userSpaceOnUse">
<stop stop-color="white"/>
<stop offset="1" stop-color="#EAEAEA"/>
</linearGradient>
</defs>
</svg>
