<svg width="120" height="120" viewBox="0 0 120 120" fill="none" xmlns="http://www.w3.org/2000/svg">
<g filter="url(#filter0_d_17_31)">
<rect x="10" y="9" width="100" height="100" rx="15" fill="url(#paint0_linear_17_31)"/>
<g clip-path="url(#clip0_17_31)">
<path d="M59.5136 43.2773C50.8537 43.2773 43.8687 50.291 43.8687 58.9863C43.8687 67.6816 50.8537 74.6953 59.5136 74.6953C68.1734 74.6953 75.1584 67.6816 75.1584 58.9863C75.1584 50.291 68.1734 43.2773 59.5136 43.2773ZM59.5136 69.1992C53.9174 69.1992 49.3424 64.6191 49.3424 58.9863C49.3424 53.3535 53.9037 48.7734 59.5136 48.7734C65.1234 48.7734 69.6848 53.3535 69.6848 58.9863C69.6848 64.6191 65.1098 69.1992 59.5136 69.1992V69.1992ZM79.4475 42.6348C79.4475 44.6719 77.8136 46.2988 75.7984 46.2988C73.7696 46.2988 72.1493 44.6582 72.1493 42.6348C72.1493 40.6113 73.7832 38.9707 75.7984 38.9707C77.8136 38.9707 79.4475 40.6113 79.4475 42.6348ZM89.8093 46.3535C89.5779 41.4453 88.4613 37.0977 84.8803 33.5156C81.3129 29.9336 76.983 28.8125 72.0948 28.5664C67.0569 28.2793 51.9567 28.2793 46.9187 28.5664C42.0442 28.7988 37.7142 29.9199 34.1332 33.502C30.5522 37.084 29.4493 41.4316 29.2042 46.3398C28.9183 51.3984 28.9183 66.5605 29.2042 71.6191C29.4357 76.5273 30.5522 80.875 34.1332 84.457C37.7142 88.0391 42.0305 89.1601 46.9187 89.4062C51.9567 89.6934 67.0569 89.6934 72.0948 89.4062C76.983 89.1738 81.3129 88.0527 84.8803 84.457C88.4477 80.875 89.5642 76.5273 89.8093 71.6191C90.0953 66.5605 90.0953 51.4121 89.8093 46.3535V46.3535ZM83.3008 77.0469C82.2388 79.7266 80.1828 81.791 77.5004 82.8711C73.4837 84.4707 63.9524 84.1016 59.5136 84.1016C55.0747 84.1016 45.5299 84.457 41.5267 82.8711C38.858 81.8047 36.802 79.7402 35.7263 77.0469C34.1332 73.0137 34.5009 63.4434 34.5009 58.9863C34.5009 54.5293 34.1468 44.9453 35.7263 40.9258C36.7883 38.2461 38.8444 36.1816 41.5267 35.1016C45.5435 33.502 55.0747 33.8711 59.5136 33.8711C63.9524 33.8711 73.4973 33.5156 77.5004 35.1016C80.1691 36.168 82.2252 38.2324 83.3008 40.9258C84.8939 44.959 84.5263 54.5293 84.5263 58.9863C84.5263 63.4434 84.8939 73.0273 83.3008 77.0469Z" fill="#FF5858"/>
</g>
</g>
<defs>
<filter id="filter0_d_17_31" x="0" y="0" width="120" height="120" filterUnits="userSpaceOnUse" color-interpolation-filters="sRGB">
<feFlood flood-opacity="0" result="BackgroundImageFix"/>
<feColorMatrix in="SourceAlpha" type="matrix" values="0 0 0 0 0 0 0 0 0 0 0 0 0 0 0 0 0 0 127 0" result="hardAlpha"/>
<feOffset dy="1"/>
<feGaussianBlur stdDeviation="5"/>
<feComposite in2="hardAlpha" operator="out"/>
<feColorMatrix type="matrix" values="0 0 0 0 0 0 0 0 0 0 0 0 0 0 0 0 0 0 0.09 0"/>
<feBlend mode="normal" in2="BackgroundImageFix" result="effect1_dropShadow_17_31"/>
<feBlend mode="normal" in="SourceGraphic" in2="effect1_dropShadow_17_31" result="shape"/>
</filter>
<linearGradient id="paint0_linear_17_31" x1="10" y1="9" x2="110" y2="109" gradientUnits="userSpaceOnUse">
<stop stop-color="white"/>
<stop offset="1" stop-color="#EAEAEA"/>
</linearGradient>
<clipPath id="clip0_17_31">
<rect width="61" height="70" fill="white" transform="translate(29 24)"/>
</clipPath>
</defs>
</svg>
