<svg width="120" height="120" viewBox="0 0 120 120" fill="none" xmlns="http://www.w3.org/2000/svg">
<g filter="url(#filter0_d_17_34)">
<rect x="10" y="9" width="100" height="100" rx="15" fill="url(#paint0_linear_17_34)"/>
<path d="M46.7443 80.125H36.7929V47.9951H46.7443V80.125ZM41.7632 43.6123C38.5811 43.6123 36 40.9697 36 37.7793C36 36.2468 36.6072 34.7771 37.688 33.6935C38.7688 32.6098 40.2347 32.0011 41.7632 32.0011C43.2917 32.0011 44.7576 32.6098 45.8384 33.6935C46.9192 34.7771 47.5264 36.2468 47.5264 37.7793C47.5264 40.9697 44.9443 43.6123 41.7632 43.6123ZM83.9893 80.125H74.0593V64.4844C74.0593 60.7568 73.9843 55.9766 68.8854 55.9766C63.7114 55.9766 62.9186 60.0264 62.9186 64.2158V80.125H52.9779V47.9951H62.5221V52.3779H62.6614C63.99 49.8535 67.2354 47.1894 72.0771 47.1894C82.1486 47.1894 84 53.8389 84 62.4756V80.125H83.9893Z" fill="#FF5858"/>
</g>
<defs>
<filter id="filter0_d_17_34" x="0" y="0" width="120" height="120" filterUnits="userSpaceOnUse" color-interpolation-filters="sRGB">
<feFlood flood-opacity="0" result="BackgroundImageFix"/>
<feColorMatrix in="SourceAlpha" type="matrix" values="0 0 0 0 0 0 0 0 0 0 0 0 0 0 0 0 0 0 127 0" result="hardAlpha"/>
<feOffset dy="1"/>
<feGaussianBlur stdDeviation="5"/>
<feComposite in2="hardAlpha" operator="out"/>
<feColorMatrix type="matrix" values="0 0 0 0 0 0 0 0 0 0 0 0 0 0 0 0 0 0 0.09 0"/>
<feBlend mode="normal" in2="BackgroundImageFix" result="effect1_dropShadow_17_34"/>
<feBlend mode="normal" in="SourceGraphic" in2="effect1_dropShadow_17_34" result="shape"/>
</filter>
<linearGradient id="paint0_linear_17_34" x1="10" y1="9" x2="110" y2="109" gradientUnits="userSpaceOnUse">
<stop stop-color="white"/>
<stop offset="1" stop-color="#EAEAEA"/>
</linearGradient>
</defs>
</svg>
